<?xml version="1.0" encoding="utf-8"?>
<!-- Generator: Adobe Illustrator 26.0.3, SVG Export Plug-In . SVG Version: 6.00 Build 0)  -->
<svg version="1.1" id="Layer_1" xmlns="http://www.w3.org/2000/svg" xmlns:xlink="http://www.w3.org/1999/xlink" x="0px" y="0px"
	 viewBox="0 0 59.6 50.2" style="enable-background:new 0 0 59.6 50.2;" xml:space="preserve">
<path d="M20.1,50.2c-3.7,0-6.7-3-6.7-6.7c0-3.7,3-6.7,6.7-6.7c3.7,0,6.7,3,6.7,6.7C26.9,47.2,23.8,50.2,20.1,50.2
	C20.1,50.2,20.1,50.2,20.1,50.2z"/>
<path d="M50.3,50.2c-3.7,0-6.7-3-6.7-6.7c0-3.7,3-6.7,6.7-6.7c3.7,0,6.7,3,6.7,6.7C57,47.2,54,50.2,50.3,50.2
	C50.3,50.2,50.3,50.2,50.3,50.2z"/>
<path d="M50.3,44.5H21.6c-1.4,0-2.5-1.1-2.5-2.5c0-0.3,0-0.5,0.1-0.8l3.9-9.5c0.2-0.5,0.8-0.8,1.4-0.6c0.5,0.2,0.8,0.8,0.6,1.3
	l-3.8,9.4c0,0.1,0,0.2,0.1,0.3c0.1,0.1,0.2,0.2,0.4,0.2h28.7c0.6,0,1,0.5,1,1S50.9,44.5,50.3,44.5L50.3,44.5z"/>
<path d="M59.2,6.8c-0.5-0.6-1.2-1-2-1H13.9l-2-4.7c-0.2-0.4-0.5-0.6-0.9-0.6H1.3c-0.6,0-1,0.5-1,1s0.5,1,1,1h8.9l12.7,29
	c0.4,0.9,1.3,1.5,2.3,1.5h24.9c1.1,0,2.1-0.7,2.4-1.8l7-22.3C59.8,8.3,59.6,7.5,59.2,6.8z M48,27.2H26.8c-0.6,0-1-0.5-1-1
	c0-0.6,0.5-1,1-1H48c0.6,0,1,0.5,1,1C49,26.7,48.5,27.2,48,27.2z M49.8,20.6H25c-0.6,0-1-0.5-1-1s0.5-1,1-1h24.8c0.6,0,1,0.5,1,1
	S50.3,20.6,49.8,20.6z M51.3,14.1H23.5c-0.6,0-1-0.5-1-1s0.5-1,1-1h27.8c0.6,0,1,0.5,1,1S51.8,14.1,51.3,14.1z"/>
<path d="M3.3,1.6c0,0.9-0.7,1.6-1.6,1.6S0,2.5,0,1.6S0.7,0,1.6,0l0,0C2.5,0,3.3,0.7,3.3,1.6C3.3,1.6,3.3,1.6,3.3,1.6z"/>
</svg>
